HIERARCHY
ROOT ui
{
	 OFFSET 0 0 0
	 CHANNELS 3 XPosition YPosition Z Position
	 EndSite
	 {
	 OFFSET 0 -1 0
	 }
}
ROOT li
{
	 OFFSET 0 0 0
	 CHANNELS 3 XPosition YPosition Z Position
	 EndSite
	 {
	 OFFSET 0 -1 0
	 }
}
ROOT ul
{
	 OFFSET 0 0 0
	 CHANNELS 3 XPosition YPosition Z Position
	 EndSite
	 {
	 OFFSET 0 -1 0
	 }
}
ROOT ll
{
	 OFFSET 0 0 0
	 CHANNELS 3 XPosition YPosition Z Position
	 EndSite
	 {
	 OFFSET 0 -1 0
	 }
}
ROOT tt
{
	 OFFSET 0 0 0
	 CHANNELS 3 XPosition YPosition Z Position
	 EndSite
	 {
	 OFFSET 0 -1 0
	 }
}
ROOT tb
{
	 OFFSET 0 0 0
	 CHANNELS 3 XPosition YPosition Z Position
	 EndSite
	 {
	 OFFSET 0 -1 0
	 }
}
ROOT td
{
	 OFFSET 0 0 0
	 CHANNELS 3 XPosition YPosition Z Position
	 EndSite
	 {
	 OFFSET 0 -1 0
	 }
}
ROOT v
{
	 OFFSET 0 0 0
	 CHANNELS 3 XPosition YPosition Z Position
	 EndSite
	 {
	 OFFSET 0 -1 0
	 }
}
ROOT bn
{
	 OFFSET 0 0 0
	 CHANNELS 3 XPosition YPosition Z Position
	 EndSite
	 {
	 OFFSET 0 -1 0
	 }
}
MOTION
Frames: 16
Frame Time: 0.002
0.03842556381225586	0.0018726199865341186	0		0.5646253662109375	-2.566941162109375	0		-0.9942584838867188	0.17070574951171874	0		-0.5194472045898437	-2.982430908203125	0		1.8797979736328125	-0.40358700561523436	0		3.1276142578125	0.06255875396728515	0		4.2976318359375	0.19478630065917968	0		5.83486962890625	0.3397467041015625	0		-0.17258633422851563	5.85750244140625	0		
-0.040607254028320314	-6.028410196304322E-4	0		0.5246617431640626	-2.567966552734375	0		-1.0631949462890624	0.175068359375	0		-0.5214505004882812	-2.987019287109375	0		1.8795921630859376	-0.41916131591796874	0		3.103818359375	0.07634702301025391	0		4.28993212890625	0.21536488342285157	0		5.82786669921875	0.3393397827148438	0		-0.28984579467773436	5.84656884765625	0		
0.04450664138793945	0.003595117092132568	0		0.553729736328125	-2.569955810546875	0		-1.0608612060546876	0.19543324279785157	0		-0.5335850219726562	-3.00343994140625	0		1.867609375	-0.4215381164550781	0		3.1100390625	0.08873422241210938	0		4.2850654296875	0.22193252563476562	0		5.842009765625	0.34666448974609376	0		-0.3088317565917969	5.85225048828125	0		
-0.03140535545349121	0.005124794006347656	0		0.516978515625	-2.56097412109375	0		-0.9848068237304688	0.1937691192626953	0		-0.46863824462890624	-3.016935302734375	0		1.8523851318359374	-0.4428421936035156	0		3.091205322265625	0.0955088119506836	0		4.2692431640625	0.2296871795654297	0		5.837955078125	0.33827981567382814	0		-0.15563888549804689	5.8674990234375	0		
0.042618953704833984	-4.594559967517853E-4	0		0.5430440673828125	-2.566862548828125	0		-0.9837216796875	0.19320745849609375	0		-0.5095711975097656	-3.02288671875	0		1.8373988037109374	-0.44911895751953124	0		3.102376953125	0.10088420104980468	0		4.26464208984375	0.25131251525878906	0		5.83903759765625	0.3378526916503906	0		-0.1546656494140625	5.86695361328125	0		
-0.033254650115966795	0.001127218008041382	0		0.5401406860351563	-2.57130615234375	0		-0.9944915771484375	0.20184736633300782	0		-0.4367728881835938	-3.049431640625	0		1.8163143310546874	-0.4632804260253906	0		3.044613525390625	0.11027184295654296	0		4.25677099609375	0.25301040649414064	0		5.84013525390625	0.3374525146484375	0		-0.2889302368164062	5.849365234375	0		
0.04483399963378906	-0.0014488940238952636	0		0.5262407836914063	-2.5755625	0		-1.0573779296875	0.20226150512695312	0		-0.4997449035644531	-3.0590068359375	0		1.8072633056640626	-0.4755847473144531	0		3.056806640625	0.11568814849853516	0		4.2660615234375	0.2654898376464844	0		5.846353515625	0.34500274658203123	0		-0.28696426391601565	5.84586669921875	0		
-0.023952735900878906	0.0060997681617736815	0		0.5314569091796875	-2.57105859375	0		-1.0431192626953125	0.2126129150390625	0		-0.4537958068847656	-3.074099365234375	0		1.8142769775390626	-0.48308883666992186	0		3.069967041015625	0.11911648559570312	0		4.25925048828125	0.2712205810546875	0		5.8554541015625	0.3445303955078125	0		-0.3048727111816406	5.85068505859375	0		
0.0510728645324707	6.353620290756225E-4	0		0.5565057373046876	-2.576805419921875	0		-1.0479603271484375	0.21727137756347656	0		-0.4967764282226563	-3.081892333984375	0		1.7962470703125	-0.4922083740234375	0		3.037272216796875	0.13422340393066406	0		4.27253466796875	0.28468899536132813	0		5.85653955078125	0.3441907958984375	0		-0.15357301330566406	5.86913525390625	0		
-0.024847280502319335	0.0023493449687957764	0		0.554519287109375	-2.582136474609375	0		-0.9719121704101562	0.2158162841796875	0		-0.4029945068359375	-3.10459521484375	0		1.784084228515625	-0.5083834228515625	0		3.020089111328125	0.11713211822509766	0		4.26052001953125	0.2795381469726563	0		5.86247998046875	0.3358009033203125	0		-0.15257513427734376	5.86875390625	0		
-0.027881059646606445	-9.403049945831299E-4	0		0.5265650024414062	-2.581067138671875	0		-1.0567548828125	0.22668142700195312	0		-0.4681396484375	-3.117007080078125	0		1.771870849609375	-0.5245299072265625	0		3.0210966796875	0.11680921936035156	0		4.2436416015625	0.2874795532226562	0		5.86272705078125	0.3525126953125	0		-0.16675300598144532	5.8586201171875	0		
-0.022895811080932617	0.0016882859468460084	0		0.5643466186523437	-2.59390234375	0		-0.9659212036132813	0.21808621215820312	0		-0.42746923828125	-3.137888916015625	0		1.769760009765625	-0.5287926635742187	0		3.02695361328125	0.11043922424316406	0		4.2366689453125	0.29329864501953123	0		5.85466943359375	0.3523543701171875	0		-0.27084176635742185	5.85879443359375	0		
-0.022028684616088867	0.0014052979946136475	0		0.5304182739257812	-2.57968994140625	0		-1.0258779296875	0.23066632080078125	0		-0.43369772338867185	-3.145072265625	0		1.7663585205078125	-0.5480153198242188	0		3.003007568359375	0.12351240539550781	0		4.236734375	0.307032470703125	0		5.86453515625	0.35194931030273435	0		-0.28412060546875	5.8487109375	0		
-0.02124216842651367	0.0011524300575256347	0		0.5820770263671875	-2.58866748046875	0		-0.9619692993164063	0.23852232360839845	0		-0.3952383117675781	-3.167860595703125	0		1.75207373046875	-0.5530612182617187	0		3.028607421875	0.10989542388916015	0		4.25052099609375	0.30658004760742186	0		5.86845068359375	0.3606320495605469	0		-0.2833133239746094	5.848458984375	0		
-0.020535316467285156	9.281169772148132E-4	0		0.5527515258789063	-2.589470703125	0		-0.961260498046875	0.23830569458007814	0		-0.4047266540527344	-3.179938720703125	0		1.73955029296875	-0.5691138305664063	0		3.0134873046875	0.12187213134765625	0		4.2382314453125	0.3065054016113281	0		5.86916015625	0.36035968017578124	0		-0.15024555969238282	5.86936083984375	0		
-0.02394400978088379	-0.0022123219966888427	0		0.5762366333007812	-2.59800146484375	0		-0.9697225341796875	0.23124848937988282	0		-0.4142882690429687	-3.19098828125	0		1.745877685546875	-0.5904166259765625	0		3.005966796875	0.11075130462646485	0		4.23886865234375	0.30625445556640624	0		5.86979833984375	0.3600882873535156	0		-0.28283761596679685	5.849056640625	0		
